<?xml version="1.0" standalone="no"?>
<!DOCTYPE svg PUBLIC "-//W3C//DTD SVG 20010904//EN"
 "http://www.w3.org/TR/2001/REC-SVG-20010904/DTD/svg10.dtd">
<svg version="1.0" xmlns="http://www.w3.org/2000/svg"
 width="1080.000000pt" height="1080.000000pt" viewBox="0 0 1080.000000 1080.000000"
 preserveAspectRatio="xMidYMid meet">

<g transform="translate(0.000000,1080.000000) scale(0.100000,-0.100000)"
fill="#1877F2" stroke="none">
<path d="M0 5400 l0 -5400 5400 0 5400 0 0 5400 0 5400 -5400 0 -5400 0 0
-5400z m4488 3070 c408 -43 754 -145 1101 -326 235 -122 422 -252 635 -443
164 -146 373 -387 471 -543 32 -51 37 -53 103 -38 152 35 457 49 658 29 860
-83 1620 -638 1947 -1420 133 -318 190 -597 190 -929 0 -372 -70 -681 -231
-1024 l-56 -118 107 -432 c99 -398 106 -434 96 -476 -5 -25 -22 -62 -36 -82
-31 -45 -112 -88 -166 -88 -21 0 -220 45 -440 101 l-401 100 -36 -21 c-217
-129 -540 -246 -805 -291 -251 -43 -629 -36 -882 17 -295 61 -596 191 -852
368 l-104 72 -141 -78 c-420 -233 -869 -352 -1376 -365 -502 -12 -928 81
-1397 307 l-142 68 -551 -139 c-302 -76 -563 -139 -579 -139 -114 0 -210 98
-211 214 0 31 49 242 130 562 72 282 130 519 130 527 0 8 -23 54 -51 103 -196
341 -324 727 -374 1126 -21 168 -20 583 1 743 95 726 441 1386 975 1861 483
429 1056 683 1704 753 115 12 469 13 583 1z"/>
<path d="M3905 8035 c-411 -50 -784 -189 -1130 -420 -148 -99 -230 -165 -359
-293 -431 -424 -687 -941 -761 -1532 -17 -145 -20 -446 -4 -588 42 -384 180
-783 374 -1083 69 -106 77 -127 76 -188 0 -37 -35 -190 -100 -443 -54 -214
-95 -388 -90 -388 5 0 190 45 412 101 251 63 421 101 452 101 43 -1 78 -15
255 -104 280 -141 490 -210 793 -260 196 -33 562 -32 767 0 513 83 960 295
1335 634 438 397 715 905 816 1493 27 153 37 512 20 677 -57 556 -291 1073
-669 1480 -405 436 -919 709 -1512 803 -143 23 -527 29 -675 10z m380 -786
c448 -55 797 -327 907 -706 20 -68 23 -101 23 -253 0 -197 -17 -290 -80 -426
-110 -240 -341 -434 -621 -524 l-72 -23 -4 -242 -3 -241 -33 -67 c-56 -112
-133 -157 -271 -157 -125 0 -212 55 -263 165 -23 50 -23 54 -23 445 0 386 1
396 22 435 45 85 125 132 286 171 225 54 292 84 362 167 61 71 79 134 80 277
0 115 -2 130 -27 182 -72 155 -218 238 -418 240 -250 2 -374 -85 -465 -329
-54 -144 -115 -193 -246 -201 -97 -6 -153 13 -217 72 -61 56 -84 106 -90 193
-12 186 70 366 240 528 126 121 271 206 425 250 186 53 318 65 488 44z m-32
-3076 c65 -20 157 -106 188 -175 31 -72 33 -192 2 -260 -30 -66 -95 -133 -162
-165 -49 -24 -68 -28 -146 -28 -75 0 -98 4 -135 24 -61 32 -126 96 -158 156
-23 43 -27 62 -27 140 0 106 22 163 91 231 94 95 211 121 347 77z"/>
<path d="M7021 6719 c-35 -4 -65 -10 -67 -12 -2 -2 17 -55 42 -118 99 -252
159 -492 196 -784 18 -151 15 -543 -6 -695 -76 -553 -267 -1019 -593 -1448
-98 -129 -259 -307 -355 -394 l-80 -72 28 -23 c54 -44 320 -170 446 -211 222
-72 318 -87 588 -87 202 0 252 3 352 23 245 47 446 123 667 254 72 43 130 70
158 74 36 5 96 -7 321 -64 152 -39 278 -69 279 -68 1 1 -29 125 -67 276 -41
161 -70 297 -70 327 0 45 9 69 59 165 169 322 241 603 241 935 0 446 -154 879
-435 1223 -269 330 -690 585 -1100 669 -191 38 -442 51 -604 30z"/>
</g>
</svg>
